<?xml version="1.0" encoding="utf-8"?>
<?xml-stylesheet type="text/xsl" href="rss1.xsl"?>
<rss version="2.0" xmlns:atom="http://www.w3.org/2005/Atom" xmlns:content="http://purl.org/rss/1.0/modules/content/" xmlns:dc="http://purl.org/dc/elements/1.1/" xmlns:media="http://search.yahoo.com/mrss/">
<channel>
 <title>Getty</title>
 <link>http://www.gettyimg.com/</link>
 <atom:link href="http://www.gettyimg.com/" rel="self" type="application/rss+xml" />

 
                <item>
                <title><![CDATA[【Requests】[REQ AUD] - Roxette - Collection - Tour Brasil (2011) flac - CDRIP]]></title>
                <link><![CDATA[https://sharemania.us/threads/roxette-collection-tour-brasil-2011-flac-cdrip.226647/]]></link>
                <description><![CDATA[<article>
<blockquote class="messageText SelectQuoteContainer ugc baseHtml">
Anyone?
<div class="messageTextEndMarker">&nbsp;</div>
</blockquote>
</article>]]></description>
                <author><![CDATA[Robert Forever]]></author>
                </item>

                
                <item>
                <title><![CDATA[【MASTER &amp; MASTER RIP】MASTER - PSY - Celeb (Master 4K)]]></title>
                <link><![CDATA[https://sharemania.us/threads/psy-celeb-master-4k.226646/]]></link>
                <description><![CDATA[<article>
<blockquote class="messageText SelectQuoteContainer ugc baseHtml">
<img src="https://i.imgur.com/LDsSu87.jpg" class="bbCodeImage LbImage" alt="[​IMG]" data-url="https://i.imgur.com/LDsSu87.jpg" style=""> <br>
<br>
<div class="bbCodeBlock bbCodeQuote">
<aside>
<blockquote class="quoteContainer"><div class="quote">General<br>
Complete name : PSY - Celeb (Master 4K).mp4<br>
Format : MPEG-4<br>
Format profile : Base Media / Version 2<br>
Codec ID : mp42 (mp42/mp41)<br>
File size : 1.41 GiB<br>
Duration : 3 min 24 s<br>
Overall bit rate mode : Variable<br>
Overall bit rate : 59.1 Mb/s<br>
Encoded date : UTC 2022-05-01 04:36:18<br>
Tagged date : UTC 2022-05-01 04:40:11<br>
TIM : 00:00:00:00<br>
TSC : 24000<br>
TSZ : 1001<br>
<br>
Video<br>
ID : 1<br>
Format : AVC<br>
Format/Info : Advanced Video Codec<br>
Format profile : Main@L5.1<br>
Format settings : CABAC / 2 Ref Frames<br>
Format settings, CABAC : Yes<br>
Format settings, Reference fra : 2 frames<br>
Format settings, GOP : M=1, N=47<br>
Codec ID : avc1<br>
Codec ID/Info : Advanced Video Coding<br>
Duration : 3 min 24 s<br>
Source duration : 3 min 24 s<br>
Bit rate mode : Variable<br>
Bit rate : 58.8 Mb/s<br>
Maximum bit rate : 768 kb/s<br>
Width : 3 840 pixels<br>
Height : 2 160 pixels<br>
Display aspect ratio : 16:9<br>
Frame rate mode : Constant<br>
Frame rate : 23.976 (24000/1001) FPS<br>
Color space : YUV<br>
Chroma subsampling : 4:2:0<br>
Bit depth : 8 bits<br>
Scan type : Progressive<br>
Bits/(Pixel*Frame) : 0.296<br>
Stream size : 1.40 GiB (99%)<br>
Source stream size : 1.40 GiB (99%)<br>
Language : English<br>
Encoded date : UTC 2022-05-01 04:36:18<br>
Tagged date : UTC 2022-05-01 04:36:18<br>
Color range : Limited<br>
Color primaries : BT.709<br>
Transfer characteristics : BT.709<br>
Matrix coefficients : BT.709<br>
Codec configuration box : avcC<br>
<br>
Audio<br>
ID : 2<br>
Format : AAC LC<br>
Format/Info : Advanced Audio Codec Low Complexity<br>
Codec ID : mp4a-40-2<br>
Duration : 3 min 24 s<br>
Source duration : 3 min 24 s<br>
Bit rate mode : Variable<br>
Bit rate : 317 kb/s<br>
Maximum bit rate : 450 kb/s<br>
Channel(s) : 2 channels<br>
Channel layout : L R<br>
Sampling rate : 48.0 kHz<br>
Frame rate : 46.875 FPS (1024 SPF)<br>
Compression mode : Lossy<br>
Stream size : 7.73 MiB (1%)<br>
Source stream size : 7.73 MiB (1%)<br>
Language : English<br>
Encoded date : UTC 2022-05-01 04:36:21<br>
Tagged date : UTC 2022-05-01 04:36:21</div><div class="quoteExpand quoteCut">Click to expand...</div></blockquote>
</aside>
</div>
<div class="bbCodeBlock bbCodeVfcHH HiddenContent">
<div class="attribution type">Hidden Content:</div>
<blockquote>You must reply before you can see the hidden data contained here.</blockquote>
</div>
<div class="messageTextEndMarker">&nbsp;</div>
</blockquote>
</article>]]></description>
                <author><![CDATA[SanaYoku]]></author>
                </item>

                </channel></rss>